<?xml version="1.0" encoding="UTF-8" standalone="no"?>
<!-- Generator: Adobe Illustrator 19.2.1, SVG Export Plug-In . SVG Version: 6.00 Build 0)  -->

<svg
   xmlns:dc="http://purl.org/dc/elements/1.1/"
   xmlns:cc="http://creativecommons.org/ns#"
   xmlns:rdf="http://www.w3.org/1999/02/22-rdf-syntax-ns#"
   xmlns:svg="http://www.w3.org/2000/svg"
   xmlns="http://www.w3.org/2000/svg"
   xmlns:sodipodi="http://sodipodi.sourceforge.net/DTD/sodipodi-0.dtd"
   xmlns:inkscape="http://www.inkscape.org/namespaces/inkscape"
   version="1.1"
   id="Livello_1"
   x="0px"
   y="0px"
   viewBox="0 0 240.19999 418.4"
   xml:space="preserve"
   inkscape:version="0.91 r13725"
   sodipodi:docname="fae-logo.svg"
   width="240.2"
   height="418.39999"><metadata
     id="metadata85"><rdf:RDF><cc:Work
         rdf:about=""><dc:format>image/svg+xml</dc:format><dc:type
           rdf:resource="http://purl.org/dc/dcmitype/StillImage" /><dc:title></dc:title></cc:Work></rdf:RDF></metadata><defs
     id="defs83" /><sodipodi:namedview
     pagecolor="#ffffff"
     bordercolor="#666666"
     borderopacity="1"
     objecttolerance="10"
     gridtolerance="10"
     guidetolerance="10"
     inkscape:pageopacity="0"
     inkscape:pageshadow="2"
     inkscape:window-width="640"
     inkscape:window-height="480"
     id="namedview81"
     showgrid="false"
     fit-margin-top="0"
     fit-margin-left="0"
     fit-margin-right="0"
     fit-margin-bottom="0"
     inkscape:zoom="0.39643878"
     inkscape:cx="164.45001"
     inkscape:cy="193.45"
     inkscape:window-x="1076"
     inkscape:window-y="216"
     inkscape:window-maximized="0"
     inkscape:current-layer="Livello_1" /><style
     type="text/css"
     id="style3">
	.st0{fill:#FFFFFF;}
	.st1{fill:#EE7F00;}
	.st2{fill-rule:evenodd;clip-rule:evenodd;fill:#1FA22E;}
	.st3{fill-rule:evenodd;clip-rule:evenodd;}
</style><g
     id="g5"
     transform="translate(-256.5,-72.699997)"><g
       id="g7"><rect
         x="256.5"
         y="72.699997"
         class="st0"
         width="240.2"
         height="278.70001"
         id="rect9"
         style="fill:#ffffff" /></g><rect
       x="256.5"
       y="351.39999"
       class="st1"
       width="240.2"
       height="139.7"
       id="rect11"
       style="fill:#ee7f00" /><path
       class="st2"
       d="m 474.8,254.8 c 0.4,0.2 0.7,0.4 1,0.7 0.2,0.3 0.4,0.5 0.5,0.9 0.1,0.3 0.2,0.7 0.2,1.1 0,0.5 -0.1,1 -0.4,1.4 -0.2,0.5 -0.6,0.8 -1.2,1 0.5,0.2 0.8,0.5 1,0.8 0.2,0.3 0.3,0.9 0.3,1.6 l 0,0.7 c 0,0.5 0,0.8 0.1,0.9 0.1,0.3 0.2,0.5 0.4,0.6 l 0,0.3 -2.3,0 c -0.1,-0.2 -0.1,-0.4 -0.1,-0.5 -0.1,-0.3 -0.1,-0.6 -0.1,-0.9 l 0,-0.9 c 0,-0.6 -0.1,-1.1 -0.4,-1.3 -0.2,-0.2 -0.6,-0.3 -1.3,-0.3 l -2.2,0 0,4 -2.1,0 0,-10.1 5,0 c 0.7,-0.3 1.2,-0.2 1.6,0 m -4.5,1.5 0,2.7 2.4,0 c 0.5,0 0.8,-0.1 1.1,-0.2 0.4,-0.2 0.6,-0.6 0.6,-1.1 0,-0.6 -0.2,-1 -0.6,-1.2 -0.2,-0.1 -0.6,-0.2 -1,-0.2 l -2.5,0 z m 2.1,11.2 c 4.4,0 7.9,-3.5 7.9,-7.9 0,-4.4 -3.5,-7.9 -7.9,-7.9 -4.4,0 -7.9,3.5 -7.9,7.9 0,4.3 3.6,7.9 7.9,7.9 m 0,1.1 c 5,0 9,-4 9,-9 0,-5 -4,-9 -9,-9 -5,0 -9,4 -9,9 0,5 4.1,9 9,9 m -21.2,-5.8 c -3.4,5.8 -10.8,7.8 -16.7,4.4 -5.8,-3.4 -7.8,-10.8 -4.4,-16.7 l 12,-20.6 c 3.4,-5.8 10.9,-7.8 16.7,-4.4 5.8,3.4 7.8,10.8 4.4,16.7 l -12,20.6 z m -38.6,0 c -3.4,5.8 -10.8,7.8 -16.7,4.4 -5.8,-3.4 -7.8,-10.8 -4.4,-16.7 L 423,196.3 c 3.4,-5.8 10.9,-7.8 16.7,-4.4 5.8,3.4 7.8,10.8 4.4,16.7 l -31.5,54.2 z m -39.3,0 c -3.4,5.8 -10.8,7.8 -16.7,4.4 -5.8,-3.4 -7.8,-10.8 -4.4,-16.7 l 50.7,-87.2 c 3.4,-5.8 10.9,-7.8 16.7,-4.4 5.8,3.4 7.8,10.8 4.4,16.7 l -50.7,87.2 z m -78.8,0 c -3.4,5.8 -10.8,7.8 -16.7,4.4 -5.8,-3.4 -7.8,-10.8 -4.4,-16.7 L 364.5,94 c 3.4,-5.8 10.9,-7.8 16.7,-4.4 5.8,3.4 7.8,10.8 4.4,16.7 l -91.1,156.5 z m 39.3,0 c -3.4,5.8 -10.8,7.8 -16.7,4.4 -5.8,-3.4 -7.8,-10.8 -4.4,-16.7 l 71,-122 c 3.4,-5.8 10.9,-7.8 16.7,-4.4 5.8,3.4 7.8,10.8 4.4,16.7 l -71,122 z"
       id="path13"
       inkscape:connector-curvature="0"
       style="clip-rule:evenodd;fill:#1fa22e;fill-rule:evenodd" /><path
       class="st3"
       d="m 367.1,277.6 c 2.4,-1.3 5.4,-1.4 8,0 l 0.4,0.3 c 1.2,0.8 2.2,1.9 2.8,3.1 l 25.5,42.8 c 0.6,1.1 1,2.3 1,3.5 0,0.2 0,0.5 0,0.7 0,4.6 -3.7,8.2 -8.2,8.2 l -25.6,0 c -4.6,0 -8.3,-3.7 -8.3,-8.2 0,-4.6 3.7,-8.2 8.2,-8.2 l 11.3,0 -11,-18.4 -17.3,30.9 c -2.2,4 -7.2,5.4 -11.2,3.2 -4,-2.2 -5.4,-7.2 -3.2,-11.2 l 24.1,-43.2 c 0.9,-1.5 2,-2.7 3.5,-3.5 m 106.1,42.3 c 4.5,0 8.2,3.7 8.2,8.2 0,4.5 -3.7,8.2 -8.2,8.2 l -44.9,0 c -4.5,0 -8.2,-3.7 -8.2,-8.2 0,-4.5 3.7,-8.2 8.2,-8.2 l 44.9,0 z M 288.3,328 c 0,4.6 -3.7,8.2 -8.3,8.2 -4.6,0 -8.2,-3.7 -8.2,-8.2 l 0,-21.2 c 0,-4.6 3.7,-8.3 8.2,-8.3 l 32.8,0 c 4.6,0 8.2,3.7 8.2,8.2 0,4.6 -3.7,8.2 -8.2,8.2 l -24.6,0 0,13.1 z m 173.1,-29.8 c 4.5,0 8.2,3.7 8.2,8.2 0,4.5 -3.7,8.2 -8.2,8.2 l -32.5,0 c -4.5,0 -8.2,-3.7 -8.2,-8.2 0,-4.5 3.7,-8.2 8.2,-8.2 l 32.5,0 z m 11.8,-21.7 c 4.5,0 8.2,3.7 8.2,8.2 0,4.5 -3.7,8.2 -8.2,8.2 l -44.9,0 c -4.5,0 -8.2,-3.7 -8.2,-8.2 0,-4.5 3.7,-8.2 8.2,-8.2 l 44.9,0 z m -148.4,0.1 c 4.6,0 8.2,3.7 8.2,8.3 0,4.6 -3.7,8.3 -8.2,8.3 l -45.4,0 c -4.6,0 -8.3,-3.7 -8.3,-8.3 0,-4.6 3.7,-8.3 8.2,-8.3 l 45.5,0 z"
       id="path15"
       inkscape:connector-curvature="0"
       style="clip-rule:evenodd;fill-rule:evenodd" /><g
       id="g17"><path
         class="st0"
         d="m 278.3,366.7 3.6,0 6.3,17.3 -4.1,0 -1.3,-3.9 -5.4,0 -1.3,3.9 -4.1,0 6.3,-17.3 z m 3.9,10.7 -2,-6.1 -2.1,6.1 4.1,0 z"
         id="path19"
         inkscape:connector-curvature="0"
         style="fill:#ffffff" /><path
         class="st0"
         d="m 291.5,384 0,-17.3 6.5,0 c 1.4,0 2.7,0.2 3.8,0.7 1.1,0.5 2,1.1 2.7,1.9 0.7,0.8 1.3,1.7 1.6,2.7 0.4,1.1 0.5,2.2 0.5,3.4 0,1.3 -0.2,2.5 -0.6,3.6 -0.4,1.1 -1,2 -1.7,2.7 -0.8,0.8 -1.7,1.3 -2.7,1.8 -1.1,0.4 -2.3,0.6 -3.6,0.6 l -6.5,0 z m 11,-8.7 c 0,-0.8 -0.1,-1.5 -0.3,-2.1 -0.2,-0.6 -0.5,-1.2 -0.9,-1.6 -0.4,-0.5 -0.9,-0.8 -1.4,-1.1 -0.6,-0.2 -1.2,-0.4 -1.9,-0.4 l -2.5,0 0,10.3 2.5,0 c 0.7,0 1.4,-0.1 2,-0.4 0.6,-0.3 1,-0.6 1.4,-1.1 0.4,-0.5 0.7,-1 0.9,-1.6 0.1,-0.5 0.2,-1.2 0.2,-2 z"
         id="path21"
         inkscape:connector-curvature="0"
         style="fill:#ffffff" /><path
         class="st0"
         d="m 312.5,366.7 4.1,12.3 4,-12.3 4.2,0 -6.6,17.3 -3.4,0 -6.6,-17.3 4.3,0 z"
         id="path23"
         inkscape:connector-curvature="0"
         style="fill:#ffffff" /><path
         class="st0"
         d="m 331.4,366.7 3.6,0 6.3,17.3 -4.1,0 -1.3,-3.9 -5.4,0 -1.3,3.9 -4.1,0 6.3,-17.3 z m 3.8,10.7 -2,-6.1 -2.1,6.1 4.1,0 z"
         id="path25"
         inkscape:connector-curvature="0"
         style="fill:#ffffff" /><path
         class="st0"
         d="m 348.6,374.1 0,9.9 -4,0 0,-17.3 3.1,0 8.1,10.2 0,-10.2 4,0 0,17.3 -3.2,0 -8,-9.9 z"
         id="path27"
         inkscape:connector-curvature="0"
         style="fill:#ffffff" /><path
         class="st0"
         d="m 363.9,375.2 c 0,-1 0.2,-2.1 0.6,-3.1 0.4,-1 1,-2 1.7,-2.8 0.7,-0.8 1.7,-1.5 2.7,-2 1.1,-0.5 2.3,-0.8 3.7,-0.8 1.6,0 3,0.4 4.2,1.1 1.2,0.7 2.1,1.6 2.7,2.7 l -3.1,2.1 c -0.2,-0.5 -0.4,-0.8 -0.7,-1.1 -0.3,-0.3 -0.6,-0.5 -1,-0.7 -0.4,-0.2 -0.7,-0.3 -1.1,-0.4 -0.4,-0.1 -0.7,-0.1 -1.1,-0.1 -0.8,0 -1.4,0.2 -2,0.5 -0.6,0.3 -1,0.7 -1.4,1.2 -0.4,0.5 -0.7,1 -0.8,1.7 -0.2,0.6 -0.3,1.2 -0.3,1.9 0,0.7 0.1,1.3 0.3,2 0.2,0.6 0.5,1.2 0.9,1.7 0.4,0.5 0.9,0.9 1.4,1.2 0.6,0.3 1.2,0.4 1.9,0.4 0.4,0 0.7,0 1.1,-0.1 0.4,-0.1 0.7,-0.2 1.1,-0.4 0.3,-0.2 0.7,-0.4 1,-0.7 0.3,-0.3 0.5,-0.7 0.7,-1.1 l 3.3,1.9 c -0.3,0.6 -0.6,1.2 -1.2,1.7 -0.5,0.5 -1.1,0.9 -1.8,1.3 -0.7,0.3 -1.4,0.6 -2.1,0.8 -0.7,0.2 -1.5,0.3 -2.2,0.3 -1.3,0 -2.4,-0.3 -3.5,-0.8 -1.1,-0.5 -2,-1.2 -2.7,-2 -0.8,-0.8 -1.3,-1.8 -1.8,-2.9 -0.3,-1.3 -0.5,-2.4 -0.5,-3.5 z"
         id="path29"
         inkscape:connector-curvature="0"
         style="fill:#ffffff" /><path
         class="st0"
         d="m 395.6,380.5 0,3.5 -12.2,0 0,-17.3 12,0 0,3.5 -8,0 0,3.4 6.8,0 0,3.2 -6.8,0 0,3.7 8.2,0 z"
         id="path31"
         inkscape:connector-curvature="0"
         style="fill:#ffffff" /><path
         class="st0"
         d="m 400.1,384 0,-17.3 6.5,0 c 1.4,0 2.7,0.2 3.8,0.7 1.1,0.5 2,1.1 2.7,1.9 0.7,0.8 1.3,1.7 1.6,2.7 0.4,1.1 0.5,2.2 0.5,3.4 0,1.3 -0.2,2.5 -0.6,3.6 -0.4,1.1 -1,2 -1.7,2.7 -0.8,0.8 -1.7,1.3 -2.7,1.8 -1.1,0.4 -2.2,0.6 -3.6,0.6 l -6.5,0 z m 11,-8.7 c 0,-0.8 -0.1,-1.5 -0.3,-2.1 -0.2,-0.6 -0.5,-1.2 -0.9,-1.6 -0.4,-0.5 -0.9,-0.8 -1.4,-1.1 -0.6,-0.2 -1.2,-0.4 -1.9,-0.4 l -2.5,0 0,10.3 2.5,0 c 0.7,0 1.4,-0.1 2,-0.4 0.6,-0.3 1,-0.6 1.4,-1.1 0.4,-0.5 0.7,-1 0.9,-1.6 0.1,-0.5 0.2,-1.2 0.2,-2 z"
         id="path33"
         inkscape:connector-curvature="0"
         style="fill:#ffffff" /></g><g
       id="g35"><path
         class="st0"
         d="m 283,396.7 c 0,-0.1 -0.2,-0.2 -0.5,-0.4 -0.3,-0.2 -0.7,-0.4 -1.1,-0.6 -0.4,-0.2 -0.9,-0.4 -1.4,-0.5 -0.5,-0.1 -1,-0.2 -1.6,-0.2 -1.4,0 -2.1,0.5 -2.1,1.4 0,0.3 0.1,0.5 0.2,0.7 0.2,0.2 0.4,0.4 0.7,0.5 0.3,0.2 0.7,0.3 1.1,0.4 0.5,0.1 1,0.3 1.6,0.4 0.8,0.2 1.6,0.5 2.2,0.7 0.7,0.3 1.2,0.6 1.7,1 0.5,0.4 0.8,0.9 1.1,1.5 0.3,0.6 0.4,1.3 0.4,2.1 0,1 -0.2,1.8 -0.5,2.5 -0.4,0.7 -0.9,1.2 -1.5,1.6 -0.6,0.4 -1.3,0.7 -2.1,0.9 -0.8,0.2 -1.6,0.3 -2.4,0.3 -0.6,0 -1.3,0 -2,-0.1 -0.7,-0.1 -1.3,-0.2 -2,-0.4 -0.6,-0.2 -1.2,-0.4 -1.8,-0.7 -0.6,-0.3 -1.1,-0.6 -1.6,-0.9 l 1.8,-3.5 c 0.1,0.1 0.3,0.2 0.6,0.5 0.4,0.2 0.8,0.5 1.3,0.7 0.5,0.2 1.1,0.4 1.8,0.6 0.7,0.2 1.3,0.3 2,0.3 1.4,0 2.1,-0.4 2.1,-1.3 0,-0.3 -0.1,-0.6 -0.3,-0.8 -0.2,-0.2 -0.5,-0.4 -0.9,-0.6 -0.4,-0.2 -0.8,-0.3 -1.3,-0.5 -0.5,-0.1 -1.1,-0.3 -1.7,-0.5 -0.8,-0.2 -1.5,-0.5 -2.1,-0.8 -0.6,-0.3 -1.1,-0.6 -1.5,-1 -0.4,-0.4 -0.7,-0.8 -0.9,-1.3 -0.2,-0.5 -0.3,-1.1 -0.3,-1.7 0,-0.9 0.2,-1.7 0.5,-2.4 0.3,-0.7 0.8,-1.3 1.4,-1.8 0.6,-0.5 1.3,-0.8 2,-1.1 0.8,-0.2 1.6,-0.4 2.5,-0.4 0.6,0 1.2,0.1 1.8,0.2 0.6,0.1 1.1,0.3 1.7,0.4 0.5,0.2 1,0.4 1.5,0.6 0.5,0.2 0.9,0.5 1.3,0.7 l -1.7,3.5 z"
         id="path37"
         inkscape:connector-curvature="0"
         style="fill:#ffffff" /><path
         class="st0"
         d="m 304.4,391.6 0,17.4 -4,0 0,-7.1 -6.9,0 0,7.1 -4,0 0,-17.3 4,0 0,6.7 6.9,0 0,-6.7 4,0 z"
         id="path39"
         inkscape:connector-curvature="0"
         style="fill:#ffffff" /><path
         class="st0"
         d="m 309.5,409 0,-17.3 7.8,0 c 0.8,0 1.6,0.2 2.3,0.5 0.7,0.3 1.3,0.8 1.8,1.3 0.5,0.6 0.9,1.2 1.2,1.9 0.3,0.7 0.4,1.4 0.4,2.1 0,0.5 -0.1,1.1 -0.2,1.6 -0.1,0.5 -0.3,1 -0.6,1.4 -0.2,0.4 -0.5,0.8 -0.9,1.2 -0.4,0.4 -0.7,0.6 -1.2,0.9 l 3.8,6.4 -4.5,0 -3.3,-5.6 -2.6,0 0,5.6 -4,0 z m 4,-9.1 3.7,0 c 0.5,0 0.9,-0.2 1.2,-0.7 0.3,-0.4 0.5,-1 0.5,-1.7 0,-0.7 -0.2,-1.3 -0.6,-1.7 -0.4,-0.4 -0.8,-0.6 -1.3,-0.6 l -3.5,0 0,4.7 z"
         id="path41"
         inkscape:connector-curvature="0"
         style="fill:#ffffff" /><path
         class="st0"
         d="m 339.8,405.4 0,3.5 -12.2,0 0,-17.3 12,0 0,3.5 -8,0 0,3.4 6.8,0 0,3.2 -6.8,0 0,3.7 8.2,0 z"
         id="path43"
         inkscape:connector-curvature="0"
         style="fill:#ffffff" /><path
         class="st0"
         d="m 344.2,409 0,-17.3 6.5,0 c 1.4,0 2.7,0.2 3.8,0.7 1.1,0.5 2,1.1 2.7,1.9 0.7,0.8 1.3,1.7 1.6,2.7 0.4,1.1 0.5,2.2 0.5,3.4 0,1.3 -0.2,2.5 -0.6,3.6 -0.4,1.1 -1,2 -1.7,2.7 -0.8,0.8 -1.7,1.3 -2.7,1.8 -1.1,0.4 -2.2,0.6 -3.6,0.6 l -6.5,0 z m 11.1,-8.7 c 0,-0.8 -0.1,-1.5 -0.3,-2.1 -0.2,-0.6 -0.5,-1.2 -0.9,-1.6 -0.4,-0.5 -0.9,-0.8 -1.4,-1.1 -0.6,-0.2 -1.2,-0.4 -1.9,-0.4 l -2.5,0 0,10.3 2.5,0 c 0.7,0 1.4,-0.1 2,-0.4 0.6,-0.3 1,-0.6 1.4,-1.1 0.4,-0.5 0.7,-1 0.9,-1.6 0.1,-0.6 0.2,-1.3 0.2,-2 z"
         id="path45"
         inkscape:connector-curvature="0"
         style="fill:#ffffff" /><path
         class="st0"
         d="m 363.6,409 0,-17.3 6.5,0 c 1.4,0 2.7,0.2 3.8,0.7 1.1,0.5 2,1.1 2.7,1.9 0.7,0.8 1.3,1.7 1.6,2.7 0.4,1.1 0.5,2.2 0.5,3.4 0,1.3 -0.2,2.5 -0.6,3.6 -0.4,1.1 -1,2 -1.7,2.7 -0.8,0.8 -1.7,1.3 -2.7,1.8 -1.1,0.4 -2.3,0.6 -3.6,0.6 l -6.5,0 z m 11,-8.7 c 0,-0.8 -0.1,-1.5 -0.3,-2.1 -0.2,-0.6 -0.5,-1.2 -0.9,-1.6 -0.4,-0.5 -0.9,-0.8 -1.4,-1.1 -0.6,-0.2 -1.2,-0.4 -1.9,-0.4 l -2.5,0 0,10.3 2.5,0 c 0.7,0 1.4,-0.1 2,-0.4 0.6,-0.3 1,-0.6 1.4,-1.1 0.4,-0.5 0.7,-1 0.9,-1.6 0.1,-0.6 0.2,-1.3 0.2,-2 z"
         id="path47"
         inkscape:connector-curvature="0"
         style="fill:#ffffff" /><path
         class="st0"
         d="m 382.9,409 0,-17.3 4,0 0,17.3 -4,0 z"
         id="path49"
         inkscape:connector-curvature="0"
         style="fill:#ffffff" /><path
         class="st0"
         d="m 396,399 0,9.9 -4,0 0,-17.3 3.1,0 8.1,10.2 0,-10.2 4,0 0,17.4 -3.2,0 -8,-10 z"
         id="path51"
         inkscape:connector-curvature="0"
         style="fill:#ffffff" /><path
         class="st0"
         d="m 424.3,407.2 c -1.3,1.2 -2.8,1.8 -4.6,1.8 -1.1,0 -2.2,-0.2 -3.2,-0.6 -1,-0.4 -1.9,-1 -2.7,-1.8 -0.8,-0.8 -1.4,-1.7 -1.8,-2.8 -0.4,-1.1 -0.7,-2.3 -0.7,-3.6 0,-1.2 0.2,-2.3 0.7,-3.4 0.4,-1.1 1,-2 1.8,-2.8 0.8,-0.8 1.7,-1.4 2.7,-1.9 1,-0.5 2.2,-0.7 3.4,-0.7 1.6,0 3,0.3 4.2,1 1.2,0.7 2.1,1.6 2.7,2.8 l -3,2.2 c -0.4,-0.8 -1,-1.4 -1.7,-1.8 -0.7,-0.4 -1.5,-0.6 -2.4,-0.6 -0.7,0 -1.3,0.1 -1.8,0.4 -0.5,0.3 -1,0.6 -1.4,1.1 -0.4,0.5 -0.7,1 -0.9,1.7 -0.2,0.6 -0.3,1.3 -0.3,2.1 0,0.7 0.1,1.4 0.3,2.1 0.2,0.6 0.5,1.2 1,1.6 0.4,0.5 0.9,0.8 1.5,1.1 0.6,0.3 1.2,0.4 1.9,0.4 1.6,0 3,-0.7 4.2,-2.2 l 0,-0.5 -3.4,0 0,-2.9 6.7,0 0,9.1 -3.3,0 0,-1.8 z"
         id="path53"
         inkscape:connector-curvature="0"
         style="fill:#ffffff" /></g><g
       id="g55"><path
         class="st0"
         d="m 286.6,420 -5.3,0 0,13.8 -4,0 0,-13.8 -5.3,0 0,-3.5 14.6,0 0,3.5 z"
         id="path57"
         inkscape:connector-curvature="0"
         style="fill:#ffffff" /><path
         class="st0"
         d="m 302.1,430.3 0,3.5 -12.2,0 0,-17.3 12,0 0,3.5 -8,0 0,3.4 6.8,0 0,3.2 -6.8,0 0,3.7 8.2,0 z"
         id="path59"
         inkscape:connector-curvature="0"
         style="fill:#ffffff" /><path
         class="st0"
         d="m 305.1,425 c 0,-1 0.2,-2.1 0.6,-3.1 0.4,-1 1,-2 1.7,-2.8 0.7,-0.8 1.7,-1.5 2.7,-2 1.1,-0.5 2.3,-0.8 3.7,-0.8 1.6,0 3,0.4 4.2,1.1 1.2,0.7 2.1,1.6 2.7,2.7 l -3.1,2.1 c -0.2,-0.5 -0.4,-0.8 -0.7,-1.1 -0.3,-0.3 -0.6,-0.5 -1,-0.7 -0.4,-0.2 -0.7,-0.3 -1.1,-0.4 -0.4,-0.1 -0.7,-0.1 -1.1,-0.1 -0.8,0 -1.4,0.2 -2,0.5 -0.6,0.3 -1,0.7 -1.4,1.2 -0.4,0.5 -0.7,1 -0.8,1.7 -0.2,0.6 -0.3,1.2 -0.3,1.9 0,0.7 0.1,1.3 0.3,2 0.2,0.6 0.5,1.2 0.9,1.7 0.4,0.5 0.9,0.9 1.4,1.2 0.6,0.3 1.2,0.4 1.9,0.4 0.4,0 0.7,0 1.1,-0.1 0.4,-0.1 0.7,-0.2 1.1,-0.4 0.4,-0.2 0.7,-0.4 1,-0.7 0.3,-0.3 0.5,-0.7 0.7,-1.1 l 3.3,1.9 c -0.3,0.6 -0.6,1.2 -1.2,1.7 -0.5,0.5 -1.1,0.9 -1.8,1.3 -0.7,0.3 -1.4,0.6 -2.1,0.8 -0.7,0.2 -1.5,0.3 -2.2,0.3 -1.3,0 -2.4,-0.3 -3.5,-0.8 -1.1,-0.5 -2,-1.2 -2.7,-2 -0.8,-0.8 -1.3,-1.8 -1.8,-2.9 -0.3,-1.3 -0.5,-2.4 -0.5,-3.5 z"
         id="path61"
         inkscape:connector-curvature="0"
         style="fill:#ffffff" /><path
         class="st0"
         d="m 339.6,416.5 0,17.3 -4,0 0,-7.1 -6.9,0 0,7.1 -4,0 0,-17.3 4,0 0,6.7 6.9,0 0,-6.7 4,0 z"
         id="path63"
         inkscape:connector-curvature="0"
         style="fill:#ffffff" /><path
         class="st0"
         d="m 348.7,423.9 0,9.9 -4,0 0,-17.3 3.1,0 8.1,10.2 0,-10.2 4,0 0,17.3 -3.2,0 -8,-9.9 z"
         id="path65"
         inkscape:connector-curvature="0"
         style="fill:#ffffff" /><path
         class="st0"
         d="m 372.7,433.9 c -1.3,0 -2.5,-0.3 -3.5,-0.8 -1.1,-0.5 -2,-1.2 -2.7,-2 -0.7,-0.8 -1.3,-1.8 -1.7,-2.8 -0.4,-1.1 -0.6,-2.1 -0.6,-3.3 0,-1.1 0.2,-2.2 0.6,-3.3 0.4,-1.1 1,-2 1.8,-2.8 0.8,-0.8 1.7,-1.4 2.7,-1.9 1.1,-0.5 2.2,-0.7 3.5,-0.7 1.3,0 2.5,0.3 3.5,0.8 1.1,0.5 2,1.2 2.7,2 0.7,0.8 1.3,1.8 1.7,2.8 0.4,1.1 0.6,2.1 0.6,3.2 0,1.1 -0.2,2.2 -0.6,3.3 -0.4,1.1 -1,2 -1.8,2.8 -0.8,0.8 -1.7,1.5 -2.7,1.9 -1.1,0.6 -2.3,0.8 -3.5,0.8 z m -4.5,-8.7 c 0,0.7 0.1,1.3 0.3,1.9 0.2,0.6 0.5,1.2 0.9,1.7 0.4,0.5 0.9,0.9 1.4,1.2 0.6,0.3 1.2,0.4 2,0.4 0.8,0 1.4,-0.2 2,-0.5 0.6,-0.3 1,-0.7 1.4,-1.2 0.4,-0.5 0.7,-1.1 0.8,-1.7 0.2,-0.6 0.3,-1.3 0.3,-1.9 0,-0.7 -0.1,-1.3 -0.3,-1.9 -0.2,-0.6 -0.5,-1.2 -0.9,-1.7 -0.4,-0.5 -0.9,-0.9 -1.4,-1.1 -0.6,-0.3 -1.2,-0.4 -1.9,-0.4 -0.8,0 -1.4,0.2 -2,0.5 -0.6,0.3 -1,0.7 -1.4,1.2 -0.4,0.5 -0.7,1 -0.9,1.7 -0.2,0.5 -0.3,1.1 -0.3,1.8 z"
         id="path67"
         inkscape:connector-curvature="0"
         style="fill:#ffffff" /><path
         class="st0"
         d="m 385.4,433.8 0,-17.3 4,0 0,13.8 8.4,0 0,3.5 -12.4,0 z"
         id="path69"
         inkscape:connector-curvature="0"
         style="fill:#ffffff" /><path
         class="st0"
         d="m 408.6,433.9 c -1.3,0 -2.5,-0.3 -3.5,-0.8 -1.1,-0.5 -2,-1.2 -2.7,-2 -0.7,-0.8 -1.3,-1.8 -1.7,-2.8 -0.4,-1.1 -0.6,-2.1 -0.6,-3.3 0,-1.1 0.2,-2.2 0.6,-3.3 0.4,-1.1 1,-2 1.8,-2.8 0.8,-0.8 1.7,-1.4 2.7,-1.9 1.1,-0.5 2.2,-0.7 3.5,-0.7 1.3,0 2.5,0.3 3.5,0.8 1.1,0.5 2,1.2 2.7,2 0.7,0.8 1.3,1.8 1.7,2.8 0.4,1.1 0.6,2.1 0.6,3.2 0,1.1 -0.2,2.2 -0.6,3.3 -0.4,1.1 -1,2 -1.8,2.8 -0.8,0.8 -1.7,1.5 -2.7,1.9 -1.1,0.6 -2.3,0.8 -3.5,0.8 z m -4.5,-8.7 c 0,0.7 0.1,1.3 0.3,1.9 0.2,0.6 0.5,1.2 0.9,1.7 0.4,0.5 0.9,0.9 1.4,1.2 0.6,0.3 1.2,0.4 2,0.4 0.8,0 1.4,-0.2 2,-0.5 0.6,-0.3 1,-0.7 1.4,-1.2 0.4,-0.5 0.7,-1.1 0.8,-1.7 0.2,-0.6 0.3,-1.3 0.3,-1.9 0,-0.7 -0.1,-1.3 -0.3,-1.9 -0.2,-0.6 -0.5,-1.2 -0.9,-1.7 -0.4,-0.5 -0.9,-0.9 -1.4,-1.1 -0.6,-0.3 -1.2,-0.4 -1.9,-0.4 -0.8,0 -1.4,0.2 -2,0.5 -0.6,0.3 -1,0.7 -1.4,1.2 -0.4,0.5 -0.7,1 -0.9,1.7 -0.2,0.5 -0.3,1.1 -0.3,1.8 z"
         id="path71"
         inkscape:connector-curvature="0"
         style="fill:#ffffff" /><path
         class="st0"
         d="m 433.2,432.1 c -1.3,1.2 -2.8,1.8 -4.6,1.8 -1.1,0 -2.2,-0.2 -3.2,-0.6 -1,-0.4 -1.9,-1 -2.6,-1.8 -0.8,-0.8 -1.4,-1.7 -1.8,-2.8 -0.4,-1.1 -0.7,-2.3 -0.7,-3.6 0,-1.2 0.2,-2.3 0.7,-3.4 0.4,-1.1 1,-2 1.8,-2.8 0.8,-0.8 1.7,-1.4 2.7,-1.9 1.1,-0.5 2.2,-0.7 3.4,-0.7 1.6,0 3,0.3 4.2,1 1.2,0.7 2.1,1.6 2.7,2.8 l -3,2.2 c -0.4,-0.8 -1,-1.4 -1.7,-1.8 -0.7,-0.4 -1.5,-0.6 -2.4,-0.6 -0.7,0 -1.3,0.1 -1.8,0.4 -0.5,0.3 -1,0.6 -1.4,1.1 -0.4,0.5 -0.7,1 -0.9,1.7 -0.2,0.6 -0.3,1.3 -0.3,2.1 0,0.7 0.1,1.4 0.3,2.1 0.2,0.6 0.5,1.2 1,1.6 0.4,0.5 0.9,0.8 1.5,1.1 0.6,0.3 1.2,0.4 1.9,0.4 1.6,0 3,-0.7 4.2,-2.2 l 0,-0.5 -3.4,0 0,-2.9 6.7,0 0,9.1 -3.3,0 0,-1.8 z"
         id="path73"
         inkscape:connector-curvature="0"
         style="fill:#ffffff" /><path
         class="st0"
         d="m 441.2,433.8 0,-17.3 4,0 0,17.3 -4,0 z"
         id="path75"
         inkscape:connector-curvature="0"
         style="fill:#ffffff" /><path
         class="st0"
         d="m 462.6,430.3 0,3.5 -12.2,0 0,-17.3 12,0 0,3.5 -8,0 0,3.4 6.8,0 0,3.2 -6.8,0 0,3.7 8.2,0 z"
         id="path77"
         inkscape:connector-curvature="0"
         style="fill:#ffffff" /><path
         class="st0"
         d="m 477.4,421.5 c 0,-0.1 -0.2,-0.2 -0.5,-0.4 -0.3,-0.2 -0.7,-0.4 -1.1,-0.6 -0.4,-0.2 -0.9,-0.4 -1.4,-0.5 -0.5,-0.1 -1,-0.2 -1.6,-0.2 -1.4,0 -2.1,0.5 -2.1,1.4 0,0.3 0.1,0.5 0.2,0.7 0.2,0.2 0.4,0.4 0.7,0.5 0.3,0.2 0.7,0.3 1.1,0.4 0.5,0.1 1,0.3 1.6,0.4 0.8,0.2 1.6,0.5 2.2,0.7 0.7,0.3 1.2,0.6 1.7,1 0.5,0.4 0.8,0.9 1.1,1.5 0.3,0.6 0.4,1.3 0.4,2.1 0,1 -0.2,1.8 -0.5,2.5 -0.4,0.7 -0.9,1.2 -1.5,1.6 -0.6,0.4 -1.3,0.7 -2.1,0.9 -0.8,0.2 -1.6,0.3 -2.4,0.3 -0.6,0 -1.3,0 -2,-0.1 -0.7,-0.1 -1.3,-0.2 -2,-0.4 -0.6,-0.2 -1.2,-0.4 -1.8,-0.7 -0.6,-0.3 -1.1,-0.6 -1.6,-0.9 l 1.8,-3.5 c 0.1,0.1 0.3,0.2 0.6,0.5 0.4,0.2 0.8,0.5 1.3,0.7 0.5,0.2 1.1,0.4 1.8,0.6 0.7,0.2 1.3,0.3 2,0.3 1.4,0 2.1,-0.4 2.1,-1.3 0,-0.3 -0.1,-0.6 -0.3,-0.8 -0.2,-0.2 -0.5,-0.4 -0.9,-0.6 -0.4,-0.2 -0.8,-0.3 -1.3,-0.5 -0.5,-0.1 -1.1,-0.3 -1.7,-0.5 -0.8,-0.2 -1.5,-0.5 -2.1,-0.8 -0.6,-0.3 -1.1,-0.6 -1.5,-1 -0.4,-0.4 -0.7,-0.8 -0.9,-1.3 -0.2,-0.5 -0.3,-1.1 -0.3,-1.7 0,-0.9 0.2,-1.7 0.5,-2.4 0.3,-0.7 0.8,-1.3 1.4,-1.8 0.6,-0.5 1.3,-0.8 2,-1.1 0.8,-0.2 1.6,-0.4 2.5,-0.4 0.6,0 1.2,0.1 1.8,0.2 0.6,0.1 1.1,0.3 1.7,0.4 0.5,0.2 1,0.4 1.5,0.6 0.5,0.2 0.9,0.5 1.3,0.7 l -1.7,3.5 z"
         id="path79"
         inkscape:connector-curvature="0"
         style="fill:#ffffff" /></g></g></svg>